<svg id="svg" version="1.1" xmlns="http://www.w3.org/2000/svg" width="400" height="400" viewBox="0, 0, 400,400"><g id="svgg"><path id="path0" d="M276.400 93.189 C 247.786 97.647,230.914 114.381,227.013 142.170 C 226.228 147.767,226.083 251.365,226.853 257.179 C 227.390 261.240,229.510 270.439,230.033 270.980 C 230.235 271.189,230.400 271.608,230.400 271.911 C 230.400 274.827,237.775 286.539,242.546 291.201 C 257.025 305.348,281.476 311.388,304.200 306.431 C 305.080 306.239,306.430 305.954,307.200 305.797 C 330.759 300.997,347.178 281.033,349.657 254.171 C 350.337 246.804,351.845 247.570,336.910 247.694 L 324.200 247.800 323.922 250.600 C 322.080 269.169,314.541 279.587,300.400 283.103 C 295.691 284.274,294.327 284.424,288.474 284.418 C 280.937 284.409,276.073 283.538,271.200 281.323 C 262.344 277.299,255.564 268.988,253.641 259.800 C 253.411 258.700,253.038 256.955,252.811 255.923 C 252.109 252.719,252.273 147.353,252.986 143.600 C 253.953 138.507,254.469 136.890,256.556 132.400 C 259.258 126.587,267.042 120.005,273.637 117.957 C 286.448 113.978,301.233 115.454,310.200 121.607 C 318.276 127.149,322.402 135.200,323.725 148.000 L 324.200 152.600 337.000 152.600 L 349.800 152.600 349.945 151.400 C 350.426 147.417,348.427 135.780,346.057 128.770 C 337.292 102.837,308.586 88.175,276.400 93.189 M50.585 95.700 C 50.481 95.975,50.441 143.180,50.498 200.600 L 50.600 305.000 63.000 305.000 L 75.400 305.000 75.380 256.200 C 75.360 206.211,75.304 203.774,73.597 178.200 C 73.376 174.900,73.016 169.410,72.796 166.000 C 72.165 156.226,71.392 146.786,70.389 136.600 C 70.151 134.180,69.790 130.490,69.587 128.400 C 69.384 126.310,69.031 122.890,68.802 120.800 C 67.961 113.116,67.861 111.067,68.344 111.365 C 68.595 111.520,68.800 111.901,68.800 112.211 C 68.800 112.521,70.675 118.495,72.966 125.487 C 75.258 132.479,79.146 144.410,81.607 152.000 C 84.068 159.590,86.767 167.870,87.605 170.400 C 88.443 172.930,90.692 179.860,92.603 185.800 C 94.514 191.740,96.961 199.300,98.040 202.600 C 99.119 205.900,100.193 209.230,100.427 210.000 C 100.661 210.770,101.051 211.805,101.294 212.300 L 101.735 213.200 115.219 213.200 L 128.703 213.200 129.129 212.100 C 129.363 211.495,129.924 209.830,130.376 208.400 C 130.827 206.970,132.076 203.100,133.150 199.800 C 134.225 196.500,136.224 190.290,137.594 186.000 C 138.963 181.710,140.412 177.210,140.812 176.000 C 141.213 174.790,142.561 170.560,143.809 166.600 C 145.057 162.640,146.937 156.790,147.988 153.600 C 149.039 150.410,150.825 144.920,151.959 141.400 C 153.092 137.880,154.921 132.210,156.022 128.800 C 157.124 125.390,158.931 119.765,160.038 116.300 C 162.747 107.818,162.811 107.944,161.617 119.400 C 160.606 129.092,158.776 147.756,158.223 154.000 C 157.882 157.850,157.415 163.070,157.185 165.600 C 156.659 171.394,156.106 178.497,155.583 186.200 C 155.359 189.500,154.979 194.900,154.739 198.200 C 154.472 201.858,154.235 223.910,154.131 254.700 L 153.960 305.200 166.373 305.200 L 178.785 305.200 179.002 304.300 C 179.121 303.805,179.169 256.600,179.109 199.400 L 179.000 95.400 162.353 95.296 C 149.334 95.214,145.619 95.301,145.309 95.696 C 145.091 95.973,144.336 98.090,143.631 100.400 C 142.926 102.710,141.657 106.850,140.812 109.600 C 139.966 112.350,138.875 115.950,138.388 117.600 C 137.901 119.250,137.179 121.590,136.785 122.800 C 136.390 124.010,135.500 126.890,134.808 129.200 C 134.115 131.510,133.402 133.850,133.223 134.400 C 133.043 134.950,132.490 136.750,131.993 138.400 C 131.496 140.050,130.769 142.390,130.379 143.600 C 127.005 154.049,119.936 178.421,118.777 183.600 C 118.604 184.370,118.100 186.350,117.655 188.000 C 117.211 189.650,116.731 191.450,116.588 192.000 C 116.020 194.191,116.018 194.194,115.456 193.571 C 115.173 193.257,114.713 192.010,114.433 190.800 C 113.073 184.921,110.883 177.788,102.401 151.600 C 101.581 149.070,100.142 144.570,99.203 141.600 C 98.264 138.630,96.425 132.870,95.115 128.800 C 91.007 116.033,87.644 105.549,86.325 101.400 C 85.625 99.200,84.812 96.905,84.516 96.300 L 83.979 95.200 67.377 95.200 C 54.463 95.200,50.733 95.311,50.585 95.700 " stroke="none" fill="#fcfafa" fill-rule="evenodd"></path><path id="path1" d="M30.400 0.291 C 29.630 0.382,28.829 0.624,28.620 0.829 C 28.411 1.033,27.837 1.200,27.344 1.200 C 26.851 1.200,26.336 1.380,26.200 1.600 C 26.064 1.820,25.513 2.000,24.976 2.000 C 24.439 2.000,24.000 2.180,24.000 2.400 C 24.000 2.620,23.640 2.800,23.200 2.800 C 22.760 2.800,22.400 2.980,22.400 3.200 C 22.400 3.420,22.040 3.600,21.600 3.600 C 21.160 3.600,20.800 3.780,20.800 4.000 C 20.800 4.220,20.440 4.400,20.000 4.400 C 19.560 4.400,19.200 4.580,19.200 4.800 C 19.200 5.020,18.912 5.200,18.560 5.200 C 18.209 5.200,17.417 5.740,16.800 6.400 C 16.183 7.060,15.476 7.600,15.229 7.600 C 14.244 7.600,7.600 14.244,7.600 15.229 C 7.600 15.476,7.060 16.183,6.400 16.800 C 5.740 17.417,5.200 18.209,5.200 18.560 C 5.200 18.912,5.020 19.200,4.800 19.200 C 4.580 19.200,4.400 19.560,4.400 20.000 C 4.400 20.440,4.220 20.800,4.000 20.800 C 3.780 20.800,3.600 21.160,3.600 21.600 C 3.600 22.040,3.420 22.400,3.200 22.400 C 2.980 22.400,2.800 22.760,2.800 23.200 C 2.800 23.640,2.620 24.000,2.400 24.000 C 2.180 24.000,2.000 24.439,2.000 24.976 C 2.000 25.513,1.820 26.064,1.600 26.200 C 1.380 26.336,1.200 26.851,1.200 27.344 C 1.200 27.837,0.975 28.465,0.700 28.740 C -0.036 29.476,-0.036 370.524,0.700 371.260 C 0.975 371.535,1.200 372.163,1.200 372.656 C 1.200 373.149,1.380 373.664,1.600 373.800 C 1.820 373.936,2.000 374.487,2.000 375.024 C 2.000 375.561,2.180 376.000,2.400 376.000 C 2.620 376.000,2.800 376.360,2.800 376.800 C 2.800 377.240,2.980 377.600,3.200 377.600 C 3.420 377.600,3.600 377.960,3.600 378.400 C 3.600 378.840,3.780 379.200,4.000 379.200 C 4.220 379.200,4.400 379.560,4.400 380.000 C 4.400 380.440,4.580 380.800,4.800 380.800 C 5.020 380.800,5.200 381.088,5.200 381.440 C 5.200 381.791,5.740 382.583,6.400 383.200 C 7.060 383.817,7.600 384.524,7.600 384.771 C 7.600 385.756,14.244 392.400,15.229 392.400 C 15.476 392.400,16.183 392.940,16.800 393.600 C 17.417 394.260,18.209 394.800,18.560 394.800 C 18.912 394.800,19.200 394.980,19.200 395.200 C 19.200 395.420,19.560 395.600,20.000 395.600 C 20.440 395.600,20.800 395.780,20.800 396.000 C 20.800 396.220,21.160 396.400,21.600 396.400 C 22.040 396.400,22.400 396.580,22.400 396.800 C 22.400 397.020,22.760 397.200,23.200 397.200 C 23.640 397.200,24.000 397.380,24.000 397.600 C 24.000 397.820,24.439 398.000,24.976 398.000 C 25.513 398.000,26.064 398.180,26.200 398.400 C 26.336 398.620,26.851 398.800,27.344 398.800 C 27.837 398.800,28.465 399.025,28.740 399.300 C 29.476 400.036,370.524 400.036,371.260 399.300 C 371.535 399.025,372.163 398.800,372.656 398.800 C 373.149 398.800,373.664 398.620,373.800 398.400 C 373.936 398.180,374.487 398.000,375.024 398.000 C 375.561 398.000,376.000 397.820,376.000 397.600 C 376.000 397.380,376.360 397.200,376.800 397.200 C 377.240 397.200,377.600 397.020,377.600 396.800 C 377.600 396.580,377.960 396.400,378.400 396.400 C 378.840 396.400,379.200 396.220,379.200 396.000 C 379.200 395.780,379.560 395.600,380.000 395.600 C 380.440 395.600,380.800 395.420,380.800 395.200 C 380.800 394.980,381.088 394.800,381.440 394.800 C 381.791 394.800,382.583 394.260,383.200 393.600 C 383.817 392.940,384.524 392.400,384.771 392.400 C 385.192 392.400,387.036 390.887,388.962 388.962 C 390.887 387.036,392.400 385.192,392.400 384.771 C 392.400 384.524,392.940 383.817,393.600 383.200 C 394.260 382.583,394.800 381.791,394.800 381.440 C 394.800 381.088,394.980 380.800,395.200 380.800 C 395.420 380.800,395.600 380.440,395.600 380.000 C 395.600 379.560,395.780 379.200,396.000 379.200 C 396.220 379.200,396.400 378.840,396.400 378.400 C 396.400 377.960,396.580 377.600,396.800 377.600 C 397.020 377.600,397.200 377.240,397.200 376.800 C 397.200 376.360,397.380 376.000,397.600 376.000 C 397.820 376.000,398.000 375.561,398.000 375.024 C 398.000 374.487,398.180 373.936,398.400 373.800 C 398.620 373.664,398.800 373.149,398.800 372.656 C 398.800 372.163,399.025 371.535,399.300 371.260 C 400.036 370.524,400.036 29.476,399.300 28.740 C 399.025 28.465,398.800 27.837,398.800 27.344 C 398.800 26.851,398.620 26.336,398.400 26.200 C 398.180 26.064,398.000 25.513,398.000 24.976 C 398.000 24.439,397.820 24.000,397.600 24.000 C 397.380 24.000,397.200 23.640,397.200 23.200 C 397.200 22.760,397.020 22.400,396.800 22.400 C 396.580 22.400,396.400 22.040,396.400 21.600 C 396.400 21.160,396.220 20.800,396.000 20.800 C 395.780 20.800,395.600 20.440,395.600 20.000 C 395.600 19.560,395.420 19.200,395.200 19.200 C 394.980 19.200,394.800 18.912,394.800 18.560 C 394.800 18.209,394.260 17.417,393.600 16.800 C 392.940 16.183,392.400 15.476,392.400 15.229 C 392.400 14.244,385.756 7.600,384.771 7.600 C 384.524 7.600,383.817 7.060,383.200 6.400 C 382.583 5.740,381.791 5.200,381.440 5.200 C 381.088 5.200,380.800 5.020,380.800 4.800 C 380.800 4.580,380.440 4.400,380.000 4.400 C 379.560 4.400,379.200 4.220,379.200 4.000 C 379.200 3.780,378.840 3.600,378.400 3.600 C 377.960 3.600,377.600 3.420,377.600 3.200 C 377.600 2.980,377.240 2.800,376.800 2.800 C 376.360 2.800,376.000 2.620,376.000 2.400 C 376.000 2.180,375.561 2.000,375.024 2.000 C 374.487 2.000,373.936 1.820,373.800 1.600 C 373.664 1.380,373.149 1.200,372.656 1.200 C 372.163 1.200,371.535 0.975,371.260 0.700 C 370.782 0.222,34.383 -0.182,30.400 0.291 M299.200 93.002 C 328.846 97.145,346.579 115.644,349.623 145.600 C 349.880 148.130,350.025 150.740,349.945 151.400 L 349.800 152.600 337.000 152.600 L 324.200 152.600 323.725 148.000 C 322.027 131.575,315.390 122.239,302.282 117.840 C 291.908 114.359,278.572 115.187,269.296 119.890 C 264.095 122.527,258.668 127.856,256.556 132.400 C 254.469 136.890,253.953 138.507,252.986 143.600 C 252.273 147.353,252.109 252.719,252.811 255.923 C 253.038 256.955,253.411 258.700,253.641 259.800 C 256.859 275.179,269.901 284.397,288.474 284.418 C 294.327 284.424,295.691 284.274,300.400 283.103 C 309.477 280.846,317.760 273.616,320.911 265.200 C 322.725 260.355,323.167 258.211,323.922 250.600 L 324.200 247.800 336.910 247.694 C 351.845 247.570,350.337 246.804,349.657 254.171 C 347.178 281.033,330.759 300.997,307.200 305.797 C 306.430 305.954,305.080 306.239,304.200 306.431 C 281.476 311.388,257.025 305.348,242.546 291.201 C 237.775 286.539,230.400 274.827,230.400 271.911 C 230.400 271.608,230.235 271.189,230.033 270.980 C 229.510 270.439,227.390 261.240,226.853 257.179 C 226.083 251.365,226.228 147.767,227.013 142.170 C 231.883 107.476,260.976 87.659,299.200 93.002 M84.516 96.300 C 84.812 96.905,85.625 99.200,86.325 101.400 C 87.644 105.549,91.007 116.033,95.115 128.800 C 96.425 132.870,98.264 138.630,99.203 141.600 C 100.142 144.570,101.581 149.070,102.401 151.600 C 110.883 177.788,113.073 184.921,114.433 190.800 C 114.713 192.010,115.173 193.257,115.456 193.571 C 116.018 194.194,116.020 194.191,116.588 192.000 C 116.731 191.450,117.211 189.650,117.655 188.000 C 118.100 186.350,118.604 184.370,118.777 183.600 C 119.936 178.421,127.005 154.049,130.379 143.600 C 130.769 142.390,131.496 140.050,131.993 138.400 C 132.490 136.750,133.043 134.950,133.223 134.400 C 133.402 133.850,134.115 131.510,134.808 129.200 C 135.500 126.890,136.390 124.010,136.785 122.800 C 137.179 121.590,137.901 119.250,138.388 117.600 C 138.875 115.950,139.966 112.350,140.812 109.600 C 141.657 106.850,142.926 102.710,143.631 100.400 C 144.336 98.090,145.091 95.973,145.309 95.696 C 145.619 95.301,149.334 95.214,162.353 95.296 L 179.000 95.400 179.109 199.400 C 179.169 256.600,179.121 303.805,179.002 304.300 L 178.785 305.200 166.373 305.200 L 153.960 305.200 154.131 254.700 C 154.235 223.910,154.472 201.858,154.739 198.200 C 154.979 194.900,155.359 189.500,155.583 186.200 C 156.106 178.497,156.659 171.394,157.185 165.600 C 157.415 163.070,157.882 157.850,158.223 154.000 C 158.776 147.756,160.606 129.092,161.617 119.400 C 162.811 107.944,162.747 107.818,160.038 116.300 C 158.931 119.765,157.124 125.390,156.022 128.800 C 154.921 132.210,153.092 137.880,151.959 141.400 C 150.825 144.920,149.039 150.410,147.988 153.600 C 146.937 156.790,145.057 162.640,143.809 166.600 C 142.561 170.560,141.213 174.790,140.812 176.000 C 140.412 177.210,138.963 181.710,137.594 186.000 C 136.224 190.290,134.225 196.500,133.150 199.800 C 132.076 203.100,130.827 206.970,130.376 208.400 C 129.924 209.830,129.363 211.495,129.129 212.100 L 128.703 213.200 115.219 213.200 L 101.735 213.200 101.294 212.300 C 101.051 211.805,100.661 210.770,100.427 210.000 C 100.193 209.230,99.119 205.900,98.040 202.600 C 96.961 199.300,94.514 191.740,92.603 185.800 C 90.692 179.860,88.443 172.930,87.605 170.400 C 86.767 167.870,84.068 159.590,81.607 152.000 C 79.146 144.410,75.258 132.479,72.966 125.487 C 70.675 118.495,68.800 112.521,68.800 112.211 C 68.800 111.901,68.595 111.520,68.344 111.365 C 67.861 111.067,67.961 113.116,68.802 120.800 C 69.031 122.890,69.384 126.310,69.587 128.400 C 69.790 130.490,70.151 134.180,70.389 136.600 C 71.392 146.786,72.165 156.226,72.796 166.000 C 73.016 169.410,73.376 174.900,73.597 178.200 C 75.304 203.774,75.360 206.211,75.380 256.200 L 75.400 305.000 63.000 305.000 L 50.600 305.000 50.498 200.600 C 50.441 143.180,50.481 95.975,50.585 95.700 C 50.733 95.311,54.463 95.200,67.377 95.200 L 83.979 95.200 84.516 96.300 " stroke="none" fill="#fc5c5c" fill-rule="evenodd"></path></g></svg>
